<?xml version="1.0" encoding="utf-8"?>
<!-- Generator: Adobe Illustrator 22.0.1, SVG Export Plug-In . SVG Version: 6.00 Build 0)  -->
<svg version="1.1" id="Layer_1" xmlns="http://www.w3.org/2000/svg" xmlns:xlink="http://www.w3.org/1999/xlink" x="0px" y="0px"
	 viewBox="0 0 720 720" style="enable-background:new 0 0 720 720;" xml:space="preserve">
<style type="text/css">
	.st0{fill:#4249BE;}
	.st1{fill:#727AFF;}
	.st2{fill:#9EA3F3;}
	.st3{fill:#4DB6AC;}
	.st4{fill:#1DE9B6;}
	.st5{fill:#69F0AE;}
	.st6{fill:#95F0C1;}
	.st7{fill:#3F45AE;}
	.st8{fill:#6A71E8;}
	.st9{fill:#9196DE;}
	.st10{fill:#1DD5A7;}
	.st11{fill:#62DBA0;}
	.st12{fill:#89DBB1;}
	.st13{fill:url(#SVGID_1_);}
	.st14{fill:url(#SVGID_2_);}
	.st15{fill:#DBDAE1;}
	.st16{fill:#FFFFFF;}
	.st17{font-family:'Asap-Bold';}
	.st18{font-size:136.4393px;}
</style>
<g>
	<path class="st0" d="M626.8,277.3c0.4,0,0.8,0.1,1.2,0.1c-9-33.6-38.9-58.4-74.5-58.4H199.2c-35.5,0-65.5,24.8-74.5,58.4
		c0.4,0,0.8-0.1,1.2-0.1H626.8"/>
	<path class="st0" d="M125.9,312.7c-1.2,0-2.4-0.2-3.6-0.5c4.1,39.8,37,71,76.9,71h354.3c39.9,0,72.8-31.2,76.9-71
		c-1.2,0.3-2.3,0.5-3.6,0.5H125.9"/>
	<path class="st0" d="M554,383.2H199.7c-42.6,0-77.3-35.6-77.3-79.3v-5.5c0-43.7,34.7-79.3,77.3-79.3H554
		c42.6,0,77.3,35.6,77.3,79.3v5.5C631.3,347.6,596.6,383.2,554,383.2"/>
	<path class="st1" d="M605.4,421c-0.3,5.7-2.7,10.9-6.8,14.8c-3.9,3.6-8.8,5.6-14,5.6c-0.3,0-0.7,0-1,0h0l-201.7-10.1
		c-5.5-0.3-10.6-2.8-14.4-7c-3.7-4.2-5.7-9.7-5.4-15.4l14.2-300c0.6-11.8,10.5-20.9,21.8-20.3l201.7,10.1
		c11.5,0.6,20.3,10.6,19.8,22.4L605.4,421"/>
	<path class="st2" d="M429.9,151.1l-10.8-0.5L417,155c-0.5,1.1-0.8,1.9-0.8,2.5c0,0.4,0.2,0.8,0.6,1.2c0.4,0.4,1.3,0.6,2.6,0.8
		l0,0.8l-8.8-0.4l0-0.8c1.2-0.2,2-0.4,2.3-0.7c0.7-0.6,1.6-2,2.5-4l11-23.1l0.7,0l8.6,24.4c0.7,2,1.3,3.2,2,3.8
		c0.6,0.6,1.5,1,2.6,1.1l0,0.8l-11-0.5l0-0.8c1.1,0,1.9-0.2,2.3-0.5c0.4-0.3,0.6-0.7,0.6-1.2c0-0.6-0.2-1.6-0.7-3L429.9,151.1z
		 M429.4,149.5l-4.2-11.8l-5.4,11.4L429.4,149.5z"/>
	<path class="st2" d="M580.7,170.1L580.7,170.1l-121.9-6.1c-1-0.1-1.8-0.9-1.7-1.9c0-1,0.7-1.8,1.9-1.7l121.8,6.1
		c1,0.1,1.8,0.9,1.7,1.9C582.5,169.4,581.7,170.1,580.7,170.1z"/>
	<path class="st2" d="M579.3,200L579.3,200l-170.7-8.5c-1-0.1-1.8-0.9-1.7-1.9c0-1,0.7-1.8,1.9-1.7l170.6,8.5c1,0.1,1.8,0.9,1.7,1.9
		C581.1,199.2,580.3,200,579.3,200z"/>
	<path class="st2" d="M577.9,229.8L577.9,229.8l-170.7-8.5c-1-0.1-1.8-0.9-1.7-1.9c0-1,0.8-1.8,1.9-1.7l170.6,8.5
		c1,0.1,1.8,0.9,1.7,1.9C579.7,229,578.9,229.8,577.9,229.8z"/>
	<path class="st2" d="M576.5,259.6L576.5,259.6l-170.7-8.5c-1-0.1-1.8-0.9-1.7-1.9c0-1,0.8-1.8,1.9-1.7l170.6,8.5
		c1,0.1,1.8,0.9,1.7,1.9C578.2,258.8,577.5,259.6,576.5,259.6z"/>
	<path class="st2" d="M575.1,289.4L575.1,289.4l-170.7-8.5c-1-0.1-1.8-0.9-1.7-1.9c0-1,0.8-1.8,1.9-1.7l170.6,8.5
		c1,0.1,1.8,0.9,1.7,1.9C576.8,288.7,576,289.4,575.1,289.4"/>
	<path class="st3" d="M573.7,319.2L573.7,319.2L403,310.7c-1-0.1-1.7-0.9-1.7-1.9c0-1,0.8-1.8,1.9-1.7l170.6,8.5
		c1,0.1,1.8,0.9,1.7,1.9C575.4,318.5,574.6,319.2,573.7,319.2"/>
	<path class="st4" d="M157.4,180.7l11.4,133.3l258.7-23.2l-11.9-139.1c-1.4-16.7-15.8-29.1-32.1-27.6l-194.2,17.5
		C170,143.4,155.7,160.9,157.4,180.7"/>
	<path class="st5" d="M237.2,308.1l50.7-62.1l-15.1-13c-12.2-10.5-30.6-8.9-40.8,3.7l-63.2,77.4l0,0.2L237.2,308.1"/>
	<path class="st6" d="M382.5,193.9c-16.8-14.5-42.2-12.2-56.3,5.1l-38.4,47l-50.6,62.1l108.4-9.8l82.5-0.5l-6-69.8L382.5,193.9"/>
	<ellipse class="st5" cx="288.2" cy="185.8" rx="19.5" ry="20"/>
	<path class="st7" d="M627.3,277.3h-15.1l-0.9,18.3h9.8c3.5,0,7,0.7,10.2,1.9c-0.1-7-1.1-13.7-2.8-20.1
		C628.1,277.4,627.7,277.3,627.3,277.3"/>
	<path class="st8" d="M612.2,277.3H426.4l0.1,1.1l148.7,7.4c1,0.1,1.8,0.9,1.7,1.9c0,1-0.8,1.7-1.8,1.7l-0.1,0L426.8,282l0.8,8.9
		l0.4,4.7h183.4L612.2,277.3"/>
	<path class="st7" d="M165.6,277.3h-39.2c-0.4,0-0.8,0.1-1.2,0.1c-1.7,6.4-2.7,13.1-2.8,20.1c3.2-1.2,6.7-1.9,10.2-1.9h34.6
		L165.6,277.3"/>
	<path class="st9" d="M426.4,278.3l0.3,3.7l148.2,7.4l0.1,0c1,0,1.7-0.8,1.8-1.7c0-1-0.7-1.9-1.7-1.9L426.4,278.3"/>
	<path class="st10" d="M198.9,277.3h-33.2l1.6,18.3h16.7L198.9,277.3 M426.4,277.3L426.4,277.3l1.2,13.6l0,0l-0.8-8.9l-0.3-3.7
		L426.4,277.3"/>
	<polyline class="st11" points="262.3,277.3 198.9,277.3 183.9,295.6 247.4,295.6 262.3,277.3 	"/>
	<polyline class="st12" points="426.4,277.3 262.3,277.3 247.4,295.6 427.9,295.6 427.5,290.9 426.4,277.3 	"/>
	
		<linearGradient id="SVGID_1_" gradientUnits="userSpaceOnUse" x1="0" y1="7.570088e-08" x2="1" y2="7.570088e-08" gradientTransform="matrix(-852.05 -795.5605 -795.5605 852.05 839.0334 873.4261)">
		<stop  offset="0" style="stop-color:#545DF1"/>
		<stop  offset="1" style="stop-color:#4AB0F9"/>
	</linearGradient>
	<path class="st13" d="M621.1,295.6h-9.8H427.9H247.4h-63.5h-16.7h-34.6c-3.5,0-7,0.7-10.2,1.9c0,0,0,0,0,0c-4,1.5-7.6,4-10.5,7.2
		c-4.8,5.3-7.1,12.1-6.5,19.1L126,583.3c1.1,13.6,13.1,24.2,27.3,24.2h447c14.2,0,26.2-10.7,27.3-24.2l0,0
		c-1.1,13.6-13.1,24.2-27.3,24.2h-447c-14.2,0-26.2-10.7-27.3-24.2l-0.5-6.3c5.2,6.4,13.3,10.5,22.3,10.5h457.9
		c9,0,17.2-4.1,22.3-10.5l20.2-253.2c0.6-7-1.8-13.8-6.5-19.1c-2.9-3.2-6.5-5.7-10.5-7.2l0,0C628.1,296.2,624.6,295.6,621.1,295.6"
		/>
	
		<linearGradient id="SVGID_2_" gradientUnits="userSpaceOnUse" x1="0" y1="8.940764e-02" x2="1" y2="8.940764e-02" gradientTransform="matrix(-852.05 -795.5605 -795.5605 852.05 839.0334 873.4261)">
		<stop  offset="0" style="stop-color:#4F57DC"/>
		<stop  offset="1" style="stop-color:#46A1E3"/>
	</linearGradient>
	<path class="st14" d="M125.5,577l0.5,6.3c1.1,13.6,13.1,24.2,27.3,24.2h447c14.2,0,26.2-10.7,27.3-24.2l0,0l0.5-6.3
		c-5.2,6.4-13.3,10.5-22.3,10.5H147.9C138.8,587.5,130.7,583.4,125.5,577"/>
	<path class="st6" d="M309.3,24v23.9c0,0.6,0.4,1,1,1c0.6,0,1-0.4,1-1V24c0-0.6-0.4-1-1-1C309.8,23,309.3,23.4,309.3,24"/>
	<path class="st6" d="M322,34.9h-23.3c-0.6,0-1,0.4-1,1c0,0.6,0.4,1,1,1H322c0.6,0,1-0.4,1-1C323,35.4,322.6,34.9,322,34.9"/>
	<path class="st15" d="M691,401.5L691,401.5L691,401.5 M684,394.4C684,394.4,684,394.4,684,394.4c-1.9,0-3.7,0.8-4.9,2.1
		c-1.3,1.3-2,3.1-2,5.1c0,2,0.8,3.8,2,5.1c1.3,1.3,3,2.1,4.9,2.1c0,0,0,0,0,0c1.9,0,3.7-0.8,4.9-2.1c1.3-1.3,2-3.1,2-5.1h-0.5H690
		c0,1.7-0.7,3.2-1.8,4.4c-1.1,1.1-2.6,1.8-4.2,1.8c-1.7,0-3.1-0.7-4.2-1.8c-1.1-1.1-1.8-2.7-1.8-4.4c0-1.7,0.7-3.2,1.8-4.4
		c1.1-1.1,2.6-1.8,4.2-1.8c1.7,0,3.1,0.7,4.2,1.8c1.1,1.1,1.8,2.7,1.8,4.4h0.5h0.5l0,0c0-2-0.8-3.8-2-5.1
		C687.7,395.2,685.9,394.4,684,394.4"/>
	<path class="st15" d="M398.1,696l12.4-22l12.4,22H398.1 M409.6,672.5l0.9-0.5L409.6,672.5 M410.5,671c-0.4,0-0.7,0.2-0.9,0.5l0,0
		l-14.1,25c-0.2,0.3-0.2,0.7,0,1c0.2,0.3,0.5,0.5,0.9,0.5h28.2c0.4,0,0.7-0.2,0.9-0.5c0.2-0.3,0.2-0.7,0-1l-14.1-25
		C411.1,671.2,410.8,671,410.5,671"/>
	<path class="st15" d="M30.4,309.3l7.8-13.8l7.8,13.8H30.4 M37.7,294.7l0.4-0.2L37.7,294.7 M38.1,293.9c-0.2,0-0.3,0.1-0.4,0.3l0,0
		l-8.6,15.3c-0.1,0.2-0.1,0.3,0,0.5c0.1,0.2,0.3,0.2,0.4,0.2h17.2c0.2,0,0.3-0.1,0.4-0.2c0.1-0.2,0.1-0.3,0-0.5l-8.6-15.3
		C38.5,294,38.3,293.9,38.1,293.9"/>
	<text transform="matrix(1 0 0 1.0261 248.3359 494.623)" class="st16 st17 st18">1 TB</text>
</g>
</svg>
