<?xml version="1.0" encoding="utf-8"?>
<!-- Generator: Adobe Illustrator 22.0.1, SVG Export Plug-In . SVG Version: 6.00 Build 0)  -->
<svg version="1.1" id="Layer_1" xmlns="http://www.w3.org/2000/svg" xmlns:xlink="http://www.w3.org/1999/xlink" x="0px" y="0px"
	 viewBox="0 0 720 720" style="enable-background:new 0 0 720 720;" xml:space="preserve">
<style type="text/css">
	.st0{fill:#2196F3;}
	.st1{fill:#FFFFFF;}
	.st2{fill:#2B669F;}
	.st3{fill:#084272;}
	.st4{fill:#1A252D;}
	.st5{fill:#DE3258;}
	.st6{fill:#B31647;}
	.st7{fill:#770438;}
	.st8{fill:#F3BB2F;}
	.st9{fill:#DEA21E;}
	.st10{fill:#B87D0F;}
	.st11{fill:#FFC107;}
	.st12{fill:#4CAF50;}
	.st13{fill:#24A885;}
	.st14{fill:#16876B;}
	.st15{fill:#59E0B9;}
	.st16{fill:#2EBA98;}
	.st17{fill:url(#SVGID_1_);}
	.st18{fill:url(#SVGID_2_);}
</style>
<g>
	<polyline class="st0" points="358,477.2 358,483.2 359,483.2 359,477.2 	"/>
	<path class="st0" d="M358,545.1v12.4h1v-12.4H358z M358,520.4v12.4h1v-12.4H358z M358,495.6V508h1v-12.4H358z"/>
	<polyline class="st0" points="358,569.9 358,575.9 359,575.9 359,569.9 	"/>
	<polygon class="st0" points="353.5,478.6 358.5,470 363.5,478.6 	"/>
	<polyline class="st0" points="357,177.2 357,183.2 358,183.2 358,177.2 	"/>
	<path class="st0" d="M357,216.6v11.1h1v-11.1H357z M357,194.3v11.1h1v-11.1H357z"/>
	<polyline class="st0" points="357,238.9 357,244.9 358,244.9 358,238.9 	"/>
	<polygon class="st0" points="352.5,178.6 357.5,170 362.5,178.6 	"/>
	<path class="st1" d="M673.1,703.4c0,2-1.7,3.7-3.7,3.7h-82.2c-2,0-3.7-1.7-3.7-3.7V583.8c0-2,1.7-3.7,3.7-3.7h62V604h23.9V703.4z"
		/>
	<path class="st2" d="M649.2,576.2h-62c-4.2,0-7.6,3.4-7.6,7.6v119.7c0,4.2,3.4,7.6,7.6,7.6h82.2c4.2,0,7.6-3.4,7.6-7.6V604
		L649.2,576.2z M673.1,703.4c0,2-1.7,3.7-3.7,3.7h-82.2c-2,0-3.7-1.7-3.7-3.7V583.8c0-2,1.7-3.7,3.7-3.7h62V604h23.9V703.4z"/>
	<polygon class="st3" points="649.2,576.2 649.2,604 677,604 	"/>
	<path class="st3" d="M684.9,696.1H571.7v-38.5c0-2.6,2.1-4.8,4.8-4.8h103.6c2.6,0,4.8,2.1,4.8,4.8L684.9,696.1L684.9,696.1z"/>
	<polygon class="st4" points="677,696.1 677,701.4 684.9,696.1 	"/>
	<polygon class="st4" points="579.6,696.1 579.6,701.4 571.7,696.1 	"/>
	<rect x="576.5" y="657.7" class="st2" width="103.4" height="33.6"/>
	<path class="st2" d="M639.7,595.8H592c-1,0-1.8-0.8-1.8-1.8c0-1,0.8-1.8,1.8-1.8h47.7c1,0,1.8,0.8,1.8,1.8
		C641.5,594.9,640.7,595.8,639.7,595.8z"/>
	<path class="st2" d="M639.7,604.4H592c-1,0-1.8-0.8-1.8-1.8s0.8-1.8,1.8-1.8h47.7c1,0,1.8,0.8,1.8,1.8S640.7,604.4,639.7,604.4z"/>
	<path class="st2" d="M664.9,613H592c-1,0-1.8-0.8-1.8-1.8s0.8-1.8,1.8-1.8h72.9c1,0,1.8,0.8,1.8,1.8
		C666.7,612.2,665.9,613,664.9,613z"/>
	<path class="st2" d="M664.9,621.6H592c-1,0-1.8-0.8-1.8-1.8c0-1,0.8-1.8,1.8-1.8h72.9c1,0,1.8,0.8,1.8,1.8
		C666.7,620.8,665.9,621.6,664.9,621.6z"/>
	<path class="st2" d="M664.9,630.2H592c-1,0-1.8-0.8-1.8-1.8c0-1,0.8-1.8,1.8-1.8h72.9c1,0,1.8,0.8,1.8,1.8S665.9,630.2,664.9,630.2
		z"/>
	<path class="st2" d="M664.9,638.8H592c-1,0-1.8-0.8-1.8-1.8c0-1,0.8-1.8,1.8-1.8h72.9c1,0,1.8,0.8,1.8,1.8S665.9,638.8,664.9,638.8
		z"/>
	<path class="st2" d="M664.9,647.5H592c-1,0-1.8-0.8-1.8-1.8s0.8-1.8,1.8-1.8h72.9c1,0,1.8,0.8,1.8,1.8
		C666.7,646.7,665.9,647.5,664.9,647.5z"/>
	<path class="st1" d="M621.1,675.2c0,1.9-0.4,3.4-1.3,4.5c-0.8,1.1-2,1.7-3.6,1.7c-0.6,0-1.1-0.1-1.6-0.4c-0.5-0.2-0.9-0.6-1.2-1
		v5.9h-3.9v-17.2h3.7l0.1,1.3c0.4-0.5,0.8-0.9,1.2-1.2s1-0.4,1.6-0.4c1.5,0,2.7,0.6,3.6,1.8c0.8,1.2,1.3,2.8,1.3,4.7V675.2z
		 M617.2,675c0-1.1-0.2-1.9-0.5-2.5c-0.3-0.6-0.8-0.9-1.5-0.9c-0.4,0-0.8,0.1-1.1,0.2c-0.3,0.2-0.5,0.4-0.7,0.7v5.2
		c0.2,0.3,0.4,0.5,0.7,0.6c0.3,0.1,0.7,0.2,1.1,0.2c0.7,0,1.2-0.3,1.5-0.8c0.3-0.6,0.4-1.3,0.4-2.3L617.2,675L617.2,675z"/>
	<path class="st1" d="M623.9,675c0-1.9,0.4-3.5,1.3-4.7c0.8-1.2,2-1.8,3.6-1.8c0.6,0,1.1,0.1,1.6,0.4c0.5,0.3,0.9,0.6,1.2,1.1v-6.8
		h3.9v17.9H632l-0.3-1.5c-0.4,0.6-0.8,1-1.3,1.3c-0.5,0.3-1.1,0.5-1.7,0.5c-1.5,0-2.7-0.6-3.6-1.7c-0.8-1.1-1.3-2.6-1.3-4.5V675z
		 M627.8,675.2c0,1,0.1,1.8,0.4,2.3c0.3,0.6,0.8,0.8,1.5,0.8c0.4,0,0.8-0.1,1.1-0.2c0.3-0.2,0.6-0.4,0.8-0.6v-5
		c-0.2-0.3-0.5-0.6-0.8-0.8c-0.3-0.2-0.6-0.3-1.1-0.3c-0.7,0-1.2,0.3-1.5,0.9c-0.3,0.6-0.5,1.5-0.5,2.5V675.2z"/>
	<path class="st1" d="M640.1,681.2v-9.7h-1.8v-2.7h1.8v-1.3c0-1.4,0.4-2.5,1.3-3.3c0.9-0.8,2.1-1.2,3.6-1.2c0.3,0,0.6,0,0.9,0.1
		c0.3,0.1,0.6,0.1,1,0.2l-0.3,2.9c-0.2,0-0.4-0.1-0.6-0.1s-0.4,0-0.6,0c-0.5,0-0.9,0.1-1.1,0.4c-0.3,0.2-0.4,0.6-0.4,1.1v1.3h2.5
		v2.7H644v9.7H640.1z"/>
	<path class="st1" d="M404.4,702.6c0,2-1.7,3.7-3.7,3.7h-81.9c-2,0-3.7-1.7-3.7-3.7V583.5c0-2,1.7-3.7,3.7-3.7h61.8v23.8h23.8V702.6
		z"/>
	<path class="st5" d="M380.6,575.9h-61.8c-4.2,0-7.5,3.4-7.5,7.5v119.1c0,4.2,3.4,7.5,7.5,7.5h81.9c4.2,0,7.5-3.4,7.5-7.5v-99
		L380.6,575.9z M404.4,702.6c0,2-1.7,3.7-3.7,3.7h-81.9c-2,0-3.7-1.7-3.7-3.7V583.5c0-2,1.7-3.7,3.7-3.7h61.8v23.8h23.8V702.6z"/>
	<polygon class="st6" points="380.6,575.9 380.6,603.6 408.2,603.6 	"/>
	<path class="st6" d="M416.1,695.3H303.4V657c0-2.6,2.1-4.8,4.8-4.8h103.2c2.6,0,4.8,2.1,4.8,4.8L416.1,695.3L416.1,695.3z"/>
	<polygon class="st7" points="408.2,695.3 408.2,700.6 416.1,695.3 	"/>
	<polygon class="st7" points="311.2,695.3 311.2,700.6 303.4,695.3 	"/>
	<rect x="308.2" y="657.1" class="st5" width="103" height="33.4"/>
	<path class="st5" d="M371.1,595.4h-47.5c-1,0-1.8-0.8-1.8-1.8c0-1,0.8-1.8,1.8-1.8h47.5c1,0,1.8,0.8,1.8,1.8
		C372.9,594.6,372.1,595.4,371.1,595.4z"/>
	<path class="st5" d="M371.1,604h-47.5c-1,0-1.8-0.8-1.8-1.8s0.8-1.8,1.8-1.8h47.5c1,0,1.8,0.8,1.8,1.8S372.1,604,371.1,604z"/>
	<path class="st5" d="M396.2,612.6h-72.6c-1,0-1.8-0.8-1.8-1.8c0-1,0.8-1.8,1.8-1.8h72.6c1,0,1.8,0.8,1.8,1.8
		C398,611.8,397.2,612.6,396.2,612.6z"/>
	<path class="st5" d="M396.2,621.2h-72.6c-1,0-1.8-0.8-1.8-1.8c0-1,0.8-1.8,1.8-1.8h72.6c1,0,1.8,0.8,1.8,1.8
		C398,620.3,397.2,621.2,396.2,621.2z"/>
	<path class="st5" d="M396.2,629.7h-72.6c-1,0-1.8-0.8-1.8-1.8c0-1,0.8-1.8,1.8-1.8h72.6c1,0,1.8,0.8,1.8,1.8
		C398,628.9,397.2,629.7,396.2,629.7z"/>
	<path class="st5" d="M396.2,638.3h-72.6c-1,0-1.8-0.8-1.8-1.8c0-1,0.8-1.8,1.8-1.8h72.6c1,0,1.8,0.8,1.8,1.8
		C398,637.5,397.2,638.3,396.2,638.3z"/>
	<path class="st5" d="M396.2,646.9h-72.6c-1,0-1.8-0.8-1.8-1.8c0-1,0.8-1.8,1.8-1.8h72.6c1,0,1.8,0.8,1.8,1.8
		C398,646.1,397.2,646.9,396.2,646.9z"/>
	<path class="st1" d="M347.5,669.8l-1.8,0c-0.6,0-1.1,0.1-1.5,0.3c-0.4,0.2-0.7,0.6-0.9,1v11.4h-5.4v-17.3h5.1l0.2,2.5
		c0.4-0.9,0.9-1.6,1.4-2.1c0.6-0.5,1.3-0.7,2.1-0.7c0.2,0,0.5,0,0.7,0c0.2,0,0.4,0.1,0.6,0.1L347.5,669.8z"/>
	<path class="st1" d="M361.8,682.5c-0.2-0.4-0.4-0.8-0.5-1.2c-0.1-0.5-0.2-0.9-0.3-1.4c-0.5,0.9-1.1,1.6-1.7,2.2
		c-0.7,0.5-1.6,0.8-2.7,0.8c-1.8,0-3.2-0.5-4.2-1.4c-1-0.9-1.5-2.2-1.5-3.8c0-1.7,0.7-3,1.9-4c1.3-0.9,3.3-1.4,5.9-1.4h2.2V671
		c0-0.7-0.2-1.3-0.5-1.7c-0.4-0.4-0.9-0.6-1.6-0.6c-0.6,0-1.1,0.2-1.4,0.5c-0.3,0.3-0.5,0.7-0.5,1.4l-5.3,0l0-0.1
		c-0.1-1.6,0.6-2.9,2-4c1.4-1.1,3.2-1.6,5.5-1.6c2.1,0,3.9,0.5,5.2,1.6c1.3,1.1,2,2.6,2,4.6v6.6c0,0.9,0.1,1.8,0.2,2.6
		s0.4,1.6,0.7,2.4L361.8,682.5z M358,679c0.7,0,1.2-0.2,1.8-0.5c0.5-0.3,0.9-0.7,1.1-1.1v-2.3h-2.2c-0.9,0-1.5,0.2-1.9,0.6
		s-0.6,0.9-0.6,1.6c0,0.5,0.2,0.9,0.5,1.2C357,678.9,357.4,679,358,679z"/>
	<path class="st1" d="M381.1,669.8l-1.8,0c-0.6,0-1.1,0.1-1.5,0.3c-0.4,0.2-0.7,0.6-0.9,1v11.4h-5.4v-17.3h5.1l0.2,2.5
		c0.4-0.9,0.9-1.6,1.4-2.1c0.6-0.5,1.3-0.7,2.1-0.7c0.2,0,0.5,0,0.7,0c0.2,0,0.4,0.1,0.6,0.1L381.1,669.8z"/>
	<path class="st1" d="M270.8,703.4c0,2-1.7,3.7-3.7,3.7h-82.2c-2,0-3.7-1.7-3.7-3.7V584.1c0-2,1.7-3.7,3.7-3.7h62v23.8h23.9V703.4z"
		/>
	<path class="st2" d="M246.9,576.5h-62c-4.2,0-7.6,3.4-7.6,7.6v119.3c0,4.2,3.4,7.6,7.6,7.6h82.2c4.2,0,7.6-3.4,7.6-7.6v-99.1
		L246.9,576.5z M270.8,703.4c0,2-1.7,3.7-3.7,3.7h-82.2c-2,0-3.7-1.7-3.7-3.7V584.1c0-2,1.7-3.7,3.7-3.7h62v23.8h23.9V703.4z"/>
	<polygon class="st3" points="246.9,576.5 246.9,604.2 274.7,604.2 	"/>
	<path class="st3" d="M282.6,696.1H169.4v-38.4c0-2.6,2.1-4.8,4.8-4.8h103.6c2.6,0,4.8,2.1,4.8,4.8L282.6,696.1L282.6,696.1z"/>
	<polygon class="st4" points="274.7,696.1 274.7,701.3 282.6,696.1 	"/>
	<polygon class="st4" points="177.3,696.1 177.3,701.3 169.4,696.1 	"/>
	<rect x="174.3" y="657.8" class="st2" width="103.4" height="33.5"/>
	<path class="st2" d="M237.4,596h-47.7c-1,0-1.8-0.8-1.8-1.8c0-1,0.8-1.8,1.8-1.8h47.7c1,0,1.8,0.8,1.8,1.8
		C239.2,595.2,238.4,596,237.4,596z"/>
	<path class="st2" d="M237.4,604.6h-47.7c-1,0-1.8-0.8-1.8-1.8c0-1,0.8-1.8,1.8-1.8h47.7c1,0,1.8,0.8,1.8,1.8
		C239.2,603.8,238.4,604.6,237.4,604.6z"/>
	<path class="st2" d="M262.6,613.2h-72.9c-1,0-1.8-0.8-1.8-1.8s0.8-1.8,1.8-1.8h72.9c1,0,1.8,0.8,1.8,1.8
		C264.4,612.4,263.6,613.2,262.6,613.2z"/>
	<path class="st2" d="M262.6,621.8h-72.9c-1,0-1.8-0.8-1.8-1.8c0-1,0.8-1.8,1.8-1.8h72.9c1,0,1.8,0.8,1.8,1.8
		S263.6,621.8,262.6,621.8z"/>
	<path class="st2" d="M262.6,630.4h-72.9c-1,0-1.8-0.8-1.8-1.8s0.8-1.8,1.8-1.8h72.9c1,0,1.8,0.8,1.8,1.8
		C264.4,629.6,263.6,630.4,262.6,630.4z"/>
	<path class="st2" d="M262.6,639h-72.9c-1,0-1.8-0.8-1.8-1.8s0.8-1.8,1.8-1.8h72.9c1,0,1.8,0.8,1.8,1.8
		C264.4,638.2,263.6,639,262.6,639z"/>
	<path class="st2" d="M262.6,647.6h-72.9c-1,0-1.8-0.8-1.8-1.8c0-1,0.8-1.8,1.8-1.8h72.9c1,0,1.8,0.8,1.8,1.8
		S263.6,647.6,262.6,647.6z"/>
	<polygon class="st1" points="213.2,678.3 219.3,678.3 219.3,681.5 208,681.5 208,679.2 213.9,671.4 208.2,671.4 208.2,668.2 
		219.1,668.2 219.1,670.5 	"/>
	<path class="st1" d="M227.4,665.2h-4.2v-2.8h4.2V665.2z M227.4,681.5h-4.2v-13.3h4.2V681.5z"/>
	<path class="st1" d="M244,675.2c0,2-0.5,3.6-1.3,4.8c-0.9,1.2-2.2,1.8-3.8,1.8c-0.6,0-1.2-0.1-1.7-0.4s-0.9-0.6-1.3-1.1v6.3h-4.2
		v-18.3h3.9l0.1,1.5c0.4-0.5,0.8-1,1.3-1.2c0.5-0.3,1.1-0.4,1.8-0.4c1.6,0,2.9,0.6,3.8,1.9s1.3,2.9,1.3,5V675.2z M239.9,674.9
		c0-1.1-0.2-2-0.5-2.7c-0.3-0.7-0.9-1-1.6-1c-0.5,0-0.9,0.1-1.2,0.3c-0.3,0.2-0.6,0.4-0.8,0.8v5.5c0.2,0.3,0.5,0.5,0.8,0.6
		c0.3,0.1,0.7,0.2,1.2,0.2c0.7,0,1.2-0.3,1.6-0.9c0.3-0.6,0.5-1.5,0.5-2.5L239.9,674.9L239.9,674.9z"/>
	<path class="st1" d="M136.5,701.6c0,2-1.7,3.7-3.7,3.7H50.6c-2,0-3.7-1.7-3.7-3.7V582.1c0-2,1.7-3.7,3.7-3.7h62v23.9h23.9V701.6z"
		/>
	<path class="st8" d="M112.6,574.5h-62c-4.2,0-7.6,3.4-7.6,7.6v119.6c0,4.2,3.4,7.6,7.6,7.6h82.2c4.2,0,7.6-3.4,7.6-7.6v-99.4
		L112.6,574.5z M136.5,701.6c0,2-1.7,3.7-3.7,3.7H50.6c-2,0-3.7-1.7-3.7-3.7V582.1c0-2,1.7-3.7,3.7-3.7h62v23.9h23.9V701.6z"/>
	<polygon class="st9" points="112.6,574.5 112.6,602.3 140.4,602.3 	"/>
	<path class="st9" d="M148.3,694.3H35.1v-38.5c0-2.6,2.1-4.8,4.8-4.8h103.6c2.6,0,4.8,2.1,4.8,4.8L148.3,694.3L148.3,694.3z"/>
	<polygon class="st10" points="140.4,694.3 140.4,699.6 148.3,694.3 	"/>
	<polygon class="st10" points="43,694.3 43,699.6 35.1,694.3 	"/>
	<rect x="40" y="656" class="st8" width="103.4" height="33.5"/>
	<path class="st8" d="M103.1,594.1H55.4c-1,0-1.8-0.8-1.8-1.8s0.8-1.8,1.8-1.8h47.7c1,0,1.8,0.8,1.8,1.8S104.1,594.1,103.1,594.1z"
		/>
	<path class="st8" d="M103.1,602.7H55.4c-1,0-1.8-0.8-1.8-1.8s0.8-1.8,1.8-1.8h47.7c1,0,1.8,0.8,1.8,1.8S104.1,602.7,103.1,602.7z"
		/>
	<path class="st8" d="M128.3,611.3H55.4c-1,0-1.8-0.8-1.8-1.8c0-1,0.8-1.8,1.8-1.8h72.9c1,0,1.8,0.8,1.8,1.8
		C130.1,610.5,129.3,611.3,128.3,611.3z"/>
	<path class="st8" d="M128.3,619.9H55.4c-1,0-1.8-0.8-1.8-1.8c0-1,0.8-1.8,1.8-1.8h72.9c1,0,1.8,0.8,1.8,1.8
		C130.1,619.1,129.3,619.9,128.3,619.9z"/>
	<path class="st8" d="M128.3,628.5H55.4c-1,0-1.8-0.8-1.8-1.8c0-1,0.8-1.8,1.8-1.8h72.9c1,0,1.8,0.8,1.8,1.8
		C130.1,627.7,129.3,628.5,128.3,628.5z"/>
	<path class="st8" d="M128.3,637.1H55.4c-1,0-1.8-0.8-1.8-1.8c0-1,0.8-1.8,1.8-1.8h72.9c1,0,1.8,0.8,1.8,1.8
		C130.1,636.3,129.3,637.1,128.3,637.1z"/>
	<path class="st8" d="M128.3,645.7H55.4c-1,0-1.8-0.8-1.8-1.8c0-1,0.8-1.8,1.8-1.8h72.9c1,0,1.8,0.8,1.8,1.8
		C130.1,644.9,129.3,645.7,128.3,645.7z"/>
	<path class="st1" d="M69.4,671.9c0,1.8-0.4,3.3-1.2,4.4c-0.8,1.1-2,1.7-3.5,1.7c-0.6,0-1.1-0.1-1.6-0.3c-0.4-0.2-0.9-0.6-1.2-1v5.8
		h-3.8v-16.8h3.6l0.1,1.3c0.3-0.5,0.8-0.9,1.2-1.1c0.5-0.3,1-0.4,1.6-0.4c1.5,0,2.7,0.6,3.5,1.7c0.8,1.2,1.2,2.7,1.2,4.6L69.4,671.9
		L69.4,671.9z M65.6,671.6c0-1-0.2-1.9-0.4-2.5c-0.3-0.6-0.8-0.9-1.4-0.9c-0.4,0-0.8,0.1-1.1,0.3s-0.5,0.4-0.7,0.7v5.1
		c0.2,0.3,0.4,0.5,0.7,0.6c0.3,0.1,0.7,0.2,1.1,0.2c0.7,0,1.1-0.3,1.4-0.8c0.3-0.6,0.4-1.3,0.4-2.3L65.6,671.6L65.6,671.6z"/>
	<path class="st1" d="M79.7,677.7c-0.2-0.3-0.3-0.5-0.4-0.9c-0.1-0.3-0.2-0.7-0.2-1c-0.3,0.6-0.7,1.2-1.2,1.5
		c-0.5,0.4-1.1,0.6-1.9,0.6c-1.3,0-2.3-0.3-3-1c-0.7-0.7-1.1-1.5-1.1-2.7c0-1.2,0.4-2.1,1.4-2.8c0.9-0.7,2.3-1,4.1-1H79v-0.9
		c0-0.5-0.1-0.9-0.4-1.2S78,668,77.5,668c-0.4,0-0.8,0.1-1,0.3c-0.2,0.2-0.3,0.5-0.3,1h-3.7l0-0.1c-0.1-1.1,0.4-2,1.4-2.8
		c1-0.8,2.3-1.1,3.9-1.1c1.5,0,2.7,0.4,3.7,1.1c0.9,0.8,1.4,1.8,1.4,3.2v4.6c0,0.6,0.1,1.3,0.2,1.8c0.1,0.6,0.3,1.1,0.5,1.7
		L79.7,677.7z M77.1,675.2c0.5,0,0.9-0.1,1.2-0.3c0.3-0.2,0.6-0.5,0.8-0.8v-1.6h-1.5c-0.6,0-1,0.2-1.3,0.4c-0.3,0.3-0.4,0.7-0.4,1.1
		c0,0.3,0.1,0.6,0.3,0.8C76.4,675.1,76.7,675.2,77.1,675.2z"/>
	<path class="st1" d="M86,671.6c0-1.9,0.4-3.4,1.2-4.6c0.8-1.2,2-1.7,3.5-1.7c0.6,0,1.2,0.2,1.7,0.4c0.5,0.3,0.9,0.7,1.3,1.3
		l0.3-1.5h3.4v12c0,1.6-0.5,2.8-1.6,3.7s-2.6,1.3-4.5,1.3c-0.6,0-1.3-0.1-2-0.3c-0.7-0.2-1.4-0.4-2-0.7l0.7-2.8
		c0.5,0.3,1.1,0.4,1.6,0.5c0.5,0.1,1.1,0.2,1.7,0.2c0.8,0,1.4-0.2,1.8-0.5c0.4-0.3,0.6-0.8,0.6-1.5v-0.9c-0.3,0.4-0.8,0.8-1.2,1
		c-0.4,0.2-1,0.3-1.5,0.3c-1.5,0-2.7-0.6-3.5-1.7c-0.8-1.1-1.2-2.6-1.2-4.4L86,671.6L86,671.6z M89.8,671.9c0,1,0.2,1.8,0.4,2.3
		c0.3,0.6,0.8,0.8,1.5,0.8c0.4,0,0.8-0.1,1.1-0.2c0.3-0.1,0.5-0.3,0.7-0.6v-5.1c-0.2-0.3-0.4-0.5-0.7-0.7c-0.3-0.2-0.6-0.2-1-0.2
		c-0.7,0-1.2,0.3-1.5,0.9c-0.3,0.6-0.4,1.4-0.4,2.5L89.8,671.9L89.8,671.9z"/>
	<path class="st1" d="M106.5,677.9c-1.9,0-3.3-0.6-4.3-1.7c-1-1.1-1.6-2.5-1.6-4.2v-0.4c0-1.9,0.5-3.4,1.5-4.5s2.4-1.8,4.3-1.7
		c1.6,0,2.9,0.5,3.8,1.5c0.9,1,1.4,2.3,1.4,4v2h-7l0,0.1c0.1,0.6,0.3,1.2,0.7,1.5c0.4,0.4,1,0.6,1.8,0.6c0.7,0,1.3-0.1,1.8-0.2
		c0.5-0.1,1-0.3,1.7-0.6l0.9,2.3c-0.5,0.4-1.2,0.7-2.1,1C108.4,677.8,107.5,677.9,106.5,677.9z M106.3,668.3c-0.6,0-1.1,0.2-1.4,0.6
		c-0.3,0.4-0.4,0.9-0.5,1.6l0,0.1h3.3v-0.3c0-0.6-0.1-1.1-0.3-1.4C107.2,668.4,106.9,668.3,106.3,668.3z"/>
	<path class="st1" d="M121.1,674.3c0-0.3-0.2-0.6-0.5-0.8c-0.3-0.3-1-0.4-1.9-0.6c-1.4-0.3-2.5-0.7-3.2-1.3
		c-0.7-0.6-1.1-1.4-1.1-2.4c0-1.1,0.4-2,1.4-2.7s2.1-1.1,3.7-1.1c1.6,0,2.9,0.3,3.9,1.1c0.9,0.7,1.4,1.7,1.4,2.8l0,0.1H121
		c0-0.5-0.1-0.8-0.3-1.1c-0.3-0.3-0.6-0.4-1.2-0.4c-0.4,0-0.7,0.1-1,0.3c-0.3,0.2-0.4,0.5-0.4,0.8s0.2,0.6,0.5,0.8
		c0.3,0.2,0.9,0.4,1.9,0.6c1.5,0.3,2.6,0.7,3.3,1.3c0.7,0.6,1.1,1.4,1.1,2.5c0,1.1-0.5,2-1.4,2.7c-1,0.7-2.3,1.1-3.8,1.1
		c-1.7,0-3-0.4-3.9-1.3c-1-0.8-1.4-1.8-1.4-2.8l0-0.1h3.4c0,0.6,0.2,1,0.5,1.3s0.8,0.4,1.4,0.4c0.5,0,0.9-0.1,1.2-0.3
		C121,675,121.1,674.7,121.1,674.3z"/>
	<polygon class="st11" points="384.8,127.7 441.1,127.7 384.8,22 328.4,22 	"/>
	<polygon class="st0" points="324.3,127.7 300.2,170 414.7,170 441.1,127.7 	"/>
	<polygon class="st12" points="328.4,22 272,120.7 300.2,170 355.6,73 	"/>
	<path class="st1" d="M538.5,702.7c0,2-1.7,3.7-3.7,3.7h-82.1c-2,0-3.7-1.7-3.7-3.7V583.1c0-2,1.7-3.7,3.7-3.7h62v23.9h23.9V702.7z"
		/>
	<path class="st13" d="M514.6,575.5h-62c-4.2,0-7.6,3.4-7.6,7.6v119.6c0,4.2,3.4,7.6,7.3,7.6h82.1c4.4,0,7.8-3.4,7.8-7.6v-99.4
		L514.6,575.5z M538.5,702.7c0,2-1.7,3.7-3.7,3.7h-82.1c-2,0-3.7-1.7-3.7-3.7V583.1c0-2,1.7-3.7,3.7-3.7h62v23.9h23.9V702.7z"/>
	<polygon class="st14" points="514.6,575.5 514.6,603.3 542.4,603.3 	"/>
	<path class="st14" d="M550.3,695.4H437.2v-38.5c0-2.6,2.1-4.8,4.8-4.8h103.5c2.6,0,4.8,2.1,4.8,4.8L550.3,695.4L550.3,695.4z"/>
	<polygon class="st15" points="542.4,695.4 542.4,700.6 550.3,695.4 	"/>
	<polygon class="st15" points="445.1,695.4 445.1,700.6 437.2,695.4 	"/>
	<rect x="442.1" y="657" class="st16" width="103.3" height="33.6"/>
	<path class="st14" d="M505.1,595.1h-47.7c-1,0-1.8-0.8-1.8-1.8s0.8-1.8,1.8-1.8h47.7c1,0,1.8,0.8,1.8,1.8S506.1,595.1,505.1,595.1z
		"/>
	<path class="st14" d="M505.1,603.7h-47.7c-1,0-1.8-0.8-1.8-1.8s0.8-1.8,1.8-1.8h47.7c1,0,1.8,0.8,1.8,1.8S506.1,603.7,505.1,603.7z
		"/>
	<path class="st14" d="M530.3,612.3h-72.8c-1,0-1.8-0.8-1.8-1.8c0-1,0.8-1.8,1.8-1.8h72.8c1,0,1.8,0.8,1.8,1.8
		C532.1,611.5,531.3,612.3,530.3,612.3z"/>
	<path class="st14" d="M530.3,620.9h-72.8c-1,0-1.8-0.8-1.8-1.8c0-1,0.8-1.8,1.8-1.8h72.8c1,0,1.8,0.8,1.8,1.8
		C532.1,620.1,531.3,620.9,530.3,620.9z"/>
	<path class="st14" d="M530.3,629.5h-72.8c-1,0-1.8-0.8-1.8-1.8c0-1,0.8-1.8,1.8-1.8h72.8c1,0,1.8,0.8,1.8,1.8
		C532.1,628.7,531.3,629.5,530.3,629.5z"/>
	<path class="st14" d="M530.3,638.1h-72.8c-1,0-1.8-0.8-1.8-1.8c0-1,0.8-1.8,1.8-1.8h72.8c1,0,1.8,0.8,1.8,1.8
		C532.1,637.3,531.3,638.1,530.3,638.1z"/>
	<path class="st14" d="M530.3,646.8h-72.8c-1,0-1.8-0.8-1.8-1.8c0-1,0.8-1.8,1.8-1.8h72.8c1,0,1.8,0.8,1.8,1.8
		C532.1,646,531.3,646.8,530.3,646.8z"/>
	<path class="st1" d="M471.1,676.7c0-2.2,0.5-3.9,1.4-5.2c0.9-1.3,2.3-2,4-2c0.6,0,1.2,0.1,1.7,0.4s1,0.7,1.4,1.3v-7.5h4.3v19.9
		h-3.8l-0.3-1.7c-0.4,0.6-0.9,1.1-1.5,1.5c-0.6,0.3-1.2,0.5-1.9,0.5c-1.7,0-3-0.6-4-1.9c-0.9-1.3-1.4-2.9-1.4-5V676.7z M475.4,677
		c0,1.1,0.2,2,0.5,2.6s0.9,0.9,1.6,0.9c0.5,0,0.9-0.1,1.2-0.2c0.4-0.2,0.6-0.4,0.9-0.7V674c-0.2-0.4-0.5-0.6-0.8-0.8
		c-0.4-0.2-0.7-0.3-1.2-0.3c-0.8,0-1.3,0.4-1.7,1.1c-0.4,0.7-0.5,1.6-0.5,2.8L475.4,677L475.4,677z"/>
	<path class="st1" d="M487.6,676.6c0-2.1,0.6-3.8,1.8-5.1c1.2-1.3,2.8-2,4.9-2c2.1,0,3.7,0.6,4.9,2c1.2,1.3,1.8,3,1.8,5.1v0.3
		c0,2.1-0.6,3.8-1.8,5.1c-1.2,1.3-2.8,2-4.9,2c-2.1,0-3.8-0.6-5-2c-1.2-1.3-1.8-3-1.8-5.1V676.6z M492,676.8c0,1.2,0.2,2.1,0.5,2.7
		c0.3,0.7,1,1,1.9,1c0.8,0,1.5-0.3,1.8-1c0.4-0.7,0.5-1.6,0.5-2.7v-0.3c0-1.1-0.2-2-0.5-2.7c-0.4-0.7-1-1-1.8-1
		c-0.9,0-1.5,0.4-1.8,1c-0.4,0.7-0.5,1.6-0.5,2.7V676.8z"/>
	<path class="st1" d="M510.6,680.6c0.6,0,1-0.2,1.3-0.5c0.3-0.3,0.4-0.8,0.4-1.4h4l0,0.1c0,1.5-0.5,2.7-1.6,3.7s-2.5,1.4-4.1,1.4
		c-2.1,0-3.7-0.6-4.8-1.9s-1.7-3-1.7-5.1v-0.3c0-2.1,0.6-3.8,1.7-5.1c1.1-1.3,2.7-2,4.8-2c1.8,0,3.2,0.5,4.2,1.5
		c1.1,1,1.6,2.3,1.5,4l0,0.1h-3.9c0-0.6-0.2-1.2-0.5-1.6c-0.3-0.4-0.8-0.6-1.3-0.6c-0.8,0-1.4,0.3-1.8,1s-0.5,1.6-0.5,2.7v0.3
		c0,1.2,0.2,2.1,0.5,2.7C509.2,680.2,509.8,680.6,510.6,680.6z"/>
	
		<linearGradient id="SVGID_1_" gradientUnits="userSpaceOnUse" x1="0" y1="-1.049430e-07" x2="1" y2="-1.049430e-07" gradientTransform="matrix(182.654 193.1884 -193.1884 182.654 253.4173 252.2732)">
		<stop  offset="0" style="stop-color:#00C4FF"/>
		<stop  offset="1" style="stop-color:#9D1BB2"/>
	</linearGradient>
	<polygon class="st17" points="244.6,406.6 244.6,282.4 358.1,221 400.2,243.8 288,305.7 288.1,326.1 410.3,259.3 410.3,306.7 
		288,373.5 288.2,431.4 	"/>
	
		<linearGradient id="SVGID_2_" gradientUnits="userSpaceOnUse" x1="0" y1="1.962917e-07" x2="1" y2="1.962917e-07" gradientTransform="matrix(182.6794 193.2137 -193.2137 182.6794 274.1681 240.0062)">
		<stop  offset="0" style="stop-color:#00C4FF"/>
		<stop  offset="1" style="stop-color:#9D1BB2"/>
	</linearGradient>
	<path class="st18" d="M429.2,259.6v56.6L306,383.4v57.8l52.1,28.8l114.2-63V282.1L429.2,259.6z M428.7,383.9l-70.4,38l-9-5.1v-9.4
		l79.4-43.8V383.9z"/>
	<polyline class="st0" points="90.3,574.5 90.3,568.5 89.3,568.5 89.3,574.5 	"/>
	
		<rect x="83.5" y="548.8" transform="matrix(3.855262e-03 -1 1 3.855262e-03 -459.6901 637.0347)" class="st0" width="12.8" height="1"/>
	<polygon class="st0" points="90.5,530 90.5,524.5 96,524.5 96,523.5 89.5,523.5 89.5,530 90.5,530 	"/>
	<path class="st0" d="M597.5,524.5h12.2v-1h-12.2V524.5z M573.1,524.5h12.2v-1h-12.2V524.5z M548.6,524.5h12.2v-1h-12.2V524.5z
		 M524.1,524.5h12.2v-1h-12.2V524.5z M499.7,524.5h12.2v-1h-12.2V524.5z M475.2,524.5h12.2v-1h-12.2V524.5z M450.7,524.5H463v-1
		h-12.2V524.5z M426.3,524.5h12.2v-1h-12.2V524.5z M401.8,524.5H414v-1h-12.2V524.5z M377.3,524.5h12.2v-1h-12.2V524.5z
		 M352.9,524.5h12.2v-1h-12.2V524.5z M328.4,524.5h12.2v-1h-12.2V524.5z M304,524.5h12.2v-1H304V524.5z M279.5,524.5h12.2v-1h-12.2
		V524.5z M255,524.5h12.2v-1H255V524.5z M230.6,524.5h12.2v-1h-12.2V524.5z M206.1,524.5h12.2v-1h-12.2V524.5z M181.6,524.5h12.2v-1
		h-12.2V524.5z M157.2,524.5h12.2v-1h-12.2V524.5z M132.7,524.5h12.2v-1h-12.2V524.5z M108.2,524.5h12.2v-1h-12.2V524.5z"/>
	<polygon class="st0" points="622,524.5 627.5,524.5 627.5,530 628.5,530 628.5,523.5 622,523.5 622,524.5 	"/>
	<rect x="627.5" y="543.3" class="st0" width="1" height="13.3"/>
	<polyline class="st0" points="627.5,570 627.5,576 628.5,576 628.5,570 	"/>
	<polyline class="st0" points="224.8,524 224.8,530 225.8,530 225.8,524 	"/>
	<rect x="224.8" y="543.3" class="st0" width="1" height="13.3"/>
	<polyline class="st0" points="224.8,569.9 224.8,575.9 225.8,575.9 225.8,569.9 	"/>
	<polyline class="st0" points="493.2,524 493.3,530 494.3,530 494.2,524 	"/>
	<rect x="493.4" y="543" transform="matrix(1 -5.457870e-03 5.457870e-03 1 -2.9917 2.7036)" class="st0" width="1" height="13"/>
	<polyline class="st0" points="493.5,569 493.5,575 494.5,575 494.5,569 	"/>
</g>
</svg>
