<?xml version="1.0" encoding="utf-8"?>
<!-- Generator: Adobe Illustrator 22.0.1, SVG Export Plug-In . SVG Version: 6.00 Build 0)  -->
<svg version="1.1" id="Layer_1" xmlns="http://www.w3.org/2000/svg" xmlns:xlink="http://www.w3.org/1999/xlink" x="0px" y="0px"
	 viewBox="0 0 720 720" style="enable-background:new 0 0 720 720;" xml:space="preserve">
<style type="text/css">
	.st0{fill:#4249BE;}
	.st1{fill:url(#SVGID_1_);}
	.st2{fill:url(#SVGID_2_);}
	.st3{fill:#545DF1;}
	.st4{fill:#95F0C1;}
	.st5{fill:#7FEFB2;}
	.st6{fill:#727AFF;}
	.st7{fill:#9EA3F3;}
	.st8{fill:#ECEFF1;}
	.st9{fill:none;stroke:#95F0C1;stroke-miterlimit:10;}
	.st10{fill:none;stroke:#95F0C1;stroke-width:2;stroke-linecap:round;stroke-linejoin:round;stroke-miterlimit:10;}
	.st11{opacity:0.2;fill:none;stroke:#4B4668;stroke-linecap:round;stroke-linejoin:round;stroke-miterlimit:10;}
	.st12{fill:none;stroke:#95F0C1;stroke-width:2;stroke-miterlimit:10;}
	.st13{opacity:0.2;fill:none;stroke:#4B4668;stroke-width:2;stroke-linecap:round;stroke-linejoin:round;stroke-miterlimit:10;}
</style>
<g id="post">
	<g>
		<g>
			<g>
				<path class="st0" d="M650,524.6H376.7c-3.4,0-6.2-2.8-6.2-6.2V502H650V524.6z"/>
				<linearGradient id="SVGID_1_" gradientUnits="userSpaceOnUse" x1="603.7291" y1="326.029" x2="147.0034" y2="564.2427">
					<stop  offset="0" style="stop-color:#545DF1"/>
					<stop  offset="1" style="stop-color:#4AB0F9"/>
				</linearGradient>
				<path class="st1" d="M650,502H270.6V318c0-16.7,13.5-30.2,30.2-30.2h319.1c16.7,0,30.2,13.5,30.2,30.2V502z"/>
				<path class="st0" d="M434.5,502H270.6V310.8c0-12.6,10.2-22.8,22.8-22.8h118.3c12.6,0,22.8,10.2,22.8,22.8V502z"/>
				<linearGradient id="SVGID_2_" gradientUnits="userSpaceOnUse" x1="260.678" y1="557.3752" x2="621.162" y2="350.1404">
					<stop  offset="0" style="stop-color:#545DF1"/>
					<stop  offset="1" style="stop-color:#4AB0F9"/>
				</linearGradient>
				<path class="st2" d="M434.5,524.6h-188c-3.4,0-6.2-2.8-6.2-6.2V502h194.3V524.6z"/>
				<rect x="454.9" y="524.6" class="st3" width="31.1" height="62.4"/>
			</g>
			<g>
				<path class="st4" d="M643.9,282.1h-94.8v-28.6h102.6v20.7C651.7,278.5,648.2,282.1,643.9,282.1z"/>
				<path class="st5" d="M535.3,340.7v-94c0-6.4,5.2-11.6,11.5-11.6h0c6.4,0,11.5,5.2,11.5,11.6v94"/>
			</g>
		</g>
		<g>
			<g>
				<g>
					<path class="st6" d="M344.6,246c-4.2-3-9.4-4.3-14.9-3.4l-223,37.9c-5.6,1-10.3,4.2-13.2,8.6L232.3,349L344.6,246z"/>
					<g>
						<path class="st7" d="M93.5,289.2c-2.8,4.1-4.1,9.3-3.2,14.7L113.2,441c0.2,1.4,0.6,2.7,1.1,3.9l118-96L93.5,289.2z"/>
						<path class="st7" d="M375.7,396.4l-22.9-137.2c-0.9-5.5-4-10.1-8.2-13.1L232.3,349l143.6,52.2C376,399.6,376,398,375.7,396.4z
							"/>
						<path class="st6" d="M136.3,457.6l223-37.9c9.3-1.6,16-9.4,16.6-18.4L232.3,349l-118,96C117.7,453.7,126.8,459.2,136.3,457.6z
							"/>
					</g>
				</g>
				<g>
					<path class="st8" d="M331.8,257.7L232.3,349l-122.5-52.8L89,171.8c-1.8-10.7,5.8-21,17.1-22.9l181.5-30.9
						c11.2-1.9,21.8,5.2,23.6,16L331.8,257.7z"/>
					<g>
						<path class="st4" d="M156.4,209l-37.5,6.4c-0.5,0.1-0.9-0.2-1-0.7l-0.7-4.4c-0.1-0.5,0.2-0.9,0.7-1l37.5-6.4
							c0.5-0.1,0.9,0.2,1,0.7l0.7,4.4C157.1,208.5,156.8,208.9,156.4,209z"/>
						<path class="st4" d="M185.1,204.1l-20,3.4c-0.5,0.1-0.9-0.2-1-0.7l-0.7-4.4c-0.1-0.5,0.2-0.9,0.7-1l20-3.4
							c0.5-0.1,0.9,0.2,1,0.7l0.7,4.4C185.8,203.6,185.5,204,185.1,204.1z"/>
						<path class="st4" d="M235.3,217.6l-15,2.6c-0.5,0.1-0.9-0.2-1-0.7l-0.7-4.4c-0.1-0.5,0.2-0.9,0.7-1l15-2.6
							c0.5-0.1,0.9,0.2,1,0.7l0.7,4.4C236,217.1,235.7,217.5,235.3,217.6z"/>
						<path class="st4" d="M257.9,240.1l-15,2.6c-0.5,0.1-0.9-0.2-1-0.7l-0.7-4.4c-0.1-0.5,0.2-0.9,0.7-1l15-2.6
							c0.5-0.1,0.9,0.2,1,0.7l0.7,4.4C258.7,239.6,258.4,240,257.9,240.1z"/>
						<path class="st4" d="M260.2,213.3l-15,2.6c-0.5,0.1-0.9-0.2-1-0.7l-0.7-4.4c-0.1-0.5,0.2-0.9,0.7-1l15-2.6
							c0.5-0.1,0.9,0.2,1,0.7l0.7,4.4C260.9,212.8,260.6,213.3,260.2,213.3z"/>
						<path class="st4" d="M144.6,277.2l-15,2.6c-0.5,0.1-0.9-0.2-1-0.7l-0.7-4.4c-0.1-0.5,0.2-0.9,0.7-1l15-2.6
							c0.5-0.1,0.9,0.2,1,0.7l0.7,4.4C145.4,276.7,145.1,277.1,144.6,277.2z"/>
						<path class="st4" d="M169.6,273l-15,2.6c-0.5,0.1-0.9-0.2-1-0.7l-0.7-4.4c-0.1-0.5,0.2-0.9,0.7-1l15-2.6
							c0.5-0.1,0.9,0.2,1,0.7l0.7,4.4C170.4,272.4,170.1,272.9,169.6,273z"/>
						<path class="st4" d="M194.5,268.7l-15,2.6c-0.5,0.1-0.9-0.2-1-0.7l-0.7-4.4c-0.1-0.5,0.2-0.9,0.7-1l15-2.6
							c0.5-0.1,0.9,0.2,1,0.7l0.7,4.4C195.3,268.2,195,268.6,194.5,268.7z"/>
						<path class="st4" d="M222.6,197.7l-29,4.9c-0.5,0.1-0.9-0.2-1-0.7l-0.7-4.4c-0.1-0.5,0.2-0.9,0.7-1l29-4.9
							c0.5-0.1,0.9,0.2,1,0.7l0.7,4.4C223.3,197.2,223,197.6,222.6,197.7z"/>
						<path class="st4" d="M235.3,244l-108.6,18.5c-0.5,0.1-0.9-0.2-1-0.7l-0.7-4.4c-0.1-0.5,0.2-0.9,0.7-1l108.6-18.5
							c0.5-0.1,0.9,0.2,1,0.7l0.7,4.4C236.1,243.4,235.8,243.9,235.3,244z"/>
						<path class="st4" d="M136.2,191l-18.2,3.1c-1.9,0.3-3.7-1-4-2.9l-3.1-18.4c-0.3-1.9,1-3.7,2.8-4l18.2-3.1c1.9-0.3,3.7,1,4,2.9
							L139,187C139.3,188.9,138,190.7,136.2,191z"/>
						<polygon class="st4" points="295.3,152.6 237.2,162.5 234.8,148.2 292.9,138.3 						"/>
					</g>
				</g>
			</g>
			<line class="st9" x1="70.7" y1="308.4" x2="47.1" y2="312.1"/>
			<line class="st9" x1="65.2" y1="345.3" x2="23.4" y2="351.8"/>
			<line class="st9" x1="79.7" y1="382.2" x2="47.1" y2="387.3"/>
			<line class="st9" x1="79.7" y1="419.2" x2="14" y2="429.5"/>
		</g>
	</g>
	<g>
		<g>
			<line class="st10" x1="423.8" y1="218.1" x2="423.8" y2="235.1"/>
			<line class="st10" x1="432.3" y1="226.6" x2="415.4" y2="226.6"/>
		</g>
		<ellipse class="st11" cx="28.1" cy="215.8" rx="4.7" ry="4.7"/>
		<ellipse class="st12" cx="697.6" cy="424.9" rx="8.4" ry="8.5"/>
		<polygon class="st13" points="146.8,519.6 136.6,537.4 156.9,537.4 		"/>
	</g>
</g>
</svg>
