<?xml version="1.0" encoding="utf-8"?>
<!-- Generator: Adobe Illustrator 22.0.1, SVG Export Plug-In . SVG Version: 6.00 Build 0)  -->
<svg version="1.1" id="Layer_1" xmlns="http://www.w3.org/2000/svg" xmlns:xlink="http://www.w3.org/1999/xlink" x="0px" y="0px"
	 viewBox="0 0 375 149" style="enable-background:new 0 0 375 149;" xml:space="preserve">
<style type="text/css">
	.st0{fill:#FFFFFF;stroke:#1050FF;stroke-width:2;stroke-linejoin:round;stroke-miterlimit:10;}
	.st1{fill:#FFFFFF;}
	.st2{fill:#CCEFFF;}
	.st3{fill:none;stroke:#1050FF;stroke-width:2;stroke-linecap:round;stroke-linejoin:round;stroke-miterlimit:10;}
	.st4{fill:none;stroke:#1050FF;stroke-width:2;stroke-linejoin:round;stroke-miterlimit:10;}
	.st5{fill:#FFFFFF;stroke:#1050FF;stroke-width:2;stroke-linecap:round;stroke-linejoin:round;stroke-miterlimit:10;}
	.st6{fill:#CCEFFF;stroke:#1050FF;stroke-width:2;stroke-linejoin:round;stroke-miterlimit:10;}
	.st7{fill:none;stroke:#1050FF;stroke-width:1.5;stroke-linecap:round;stroke-linejoin:round;stroke-miterlimit:10;}
</style>
<g>
	<polygon class="st0" points="119.1,147 104.5,147 99.3,130.5 124.3,130.5 	"/>
	<polygon class="st0" points="269.5,147 250.7,147 247.5,122.3 272.6,122.3 	"/>
	<polygon class="st1" points="120.2,130.5 103.5,130.5 103.5,108.9 111.8,102.8 120.2,108.9 	"/>
	<g>
		<polygon class="st1" points="197.4,147 193.2,135.7 178.6,135.7 174.5,147 		"/>
	</g>
	<polyline class="st1" points="212,65.7 236,65.7 236,135.7 135.8,135.7 135.8,65.7 161.9,65.7 	"/>
	<polygon class="st1" points="180.7,77 175.5,33.8 185.9,10.1 196.4,33.8 191.2,77 	"/>
	<polygon class="st2" points="111.8,102.8 120.2,108.9 120.2,130.5 111.8,130.5 	"/>
	<polygon class="st2" points="195.1,140.8 193.2,135.7 178.6,135.7 176.7,140.8 	"/>
	<polygon class="st2" points="185.9,10.1 196.4,33.8 191.2,77 185.9,77 	"/>
	<polygon class="st2" points="236,65.7 236,122.3 135.8,122.3 	"/>
	<polyline class="st3" points="252.7,117.2 254.8,115.1 250.7,111 252.7,108.9 	"/>
	<polyline class="st3" points="260.1,117.2 262.1,115.1 258,111 260.1,108.9 	"/>
	<polyline class="st3" points="267.4,117.2 269.5,115.1 265.3,111 267.4,108.9 	"/>
	<polygon class="st4" points="189.1,130.5 185.9,132.6 182.8,130.5 182.8,127.4 185.9,125.4 189.1,127.4 	"/>
	<g>
		<polygon class="st3" points="197.4,147 193.2,135.7 178.6,135.7 174.5,147 		"/>
	</g>
	<polygon class="st3" points="120.2,130.5 103.5,130.5 103.5,108.9 111.8,102.8 120.2,108.9 	"/>
	<line class="st3" x1="103.5" y1="114.1" x2="100.3" y2="114.1"/>
	<line class="st3" x1="103.5" y1="108.9" x2="101.4" y2="107.9"/>
	<line class="st3" x1="103.5" y1="120.2" x2="100.3" y2="120.2"/>
	<line class="st3" x1="103.5" y1="126.4" x2="100.3" y2="126.4"/>
	<line class="st3" x1="120.2" y1="114.1" x2="123.3" y2="114.1"/>
	<line class="st3" x1="120.2" y1="120.2" x2="123.3" y2="120.2"/>
	<line class="st3" x1="120.2" y1="126.4" x2="123.3" y2="126.4"/>
	<line class="st3" x1="107.6" y1="105.8" x2="105.5" y2="103.8"/>
	<line class="st3" x1="120.2" y1="108.9" x2="122.3" y2="107.9"/>
	<line class="st3" x1="116" y1="105.8" x2="118.1" y2="103.8"/>
	<line class="st3" x1="100.6" y1="134.7" x2="123" y2="134.7"/>
	<polyline class="st3" points="107.6,126.4 109.7,123.3 107.6,120.2 109.7,117.2 107.6,114.1 109.7,111 	"/>
	<polyline class="st3" points="113.9,126.4 116,123.3 113.9,120.2 116,117.2 113.9,114.1 116,111 	"/>
	<g>
		<line class="st3" x1="97.2" y1="147" x2="278.8" y2="147"/>
		<line class="st3" x1="284.1" y1="147" x2="287.2" y2="147"/>
		<line class="st3" x1="87.8" y1="147" x2="90.9" y2="147"/>
	</g>
	<polygon class="st0" points="190.1,39.5 185.9,42 181.8,39.5 181.8,34.3 185.9,31.8 190.1,34.3 	"/>
	<polygon class="st3" points="180.7,77 175.5,33.8 185.9,10.1 196.4,33.8 191.2,77 	"/>
	<polygon class="st5" points="174.5,87.3 169.2,93.5 164,87.3 169.2,64.7 	"/>
	<polygon class="st5" points="191.2,87.3 185.9,93.5 180.7,87.3 185.9,64.7 	"/>
	<polygon class="st5" points="207.9,87.3 202.6,93.5 197.4,87.3 202.6,64.7 	"/>
	<line class="st3" x1="171.2" y1="73.2" x2="178.5" y2="58.7"/>
	<line class="st3" x1="173.5" y1="83.1" x2="180.7" y2="77"/>
	<line class="st3" x1="200.7" y1="73.2" x2="193.4" y2="58.7"/>
	<line class="st3" x1="198.4" y1="83.1" x2="191.2" y2="77"/>
	<line class="st3" x1="185.9" y1="10.1" x2="185.9" y2="5"/>
	<line class="st3" x1="164" y1="87.3" x2="174.5" y2="87.3"/>
	<line class="st3" x1="180.7" y1="87.3" x2="191.2" y2="87.3"/>
	<line class="st3" x1="197.4" y1="87.3" x2="207.9" y2="87.3"/>
	<g>
		<polygon class="st6" points="260.1,139.8 266.3,133.6 263.2,128.5 260.1,131.6 256.9,128.5 253.8,133.6 		"/>
	</g>
	<polyline class="st3" points="271.8,128.5 279.9,128.5 274.7,140.8 270.2,140.8 	"/>
	<g>
		<line class="st3" x1="185.9" y1="98.6" x2="185.9" y2="104.8"/>
		<line class="st3" x1="185.9" y1="108.9" x2="185.9" y2="111"/>
		<line class="st3" x1="190.1" y1="96.6" x2="190.1" y2="102.8"/>
		<line class="st3" x1="190.1" y1="106.9" x2="190.1" y2="108.9"/>
		<line class="st3" x1="181.8" y1="96.6" x2="181.8" y2="102.8"/>
		<line class="st3" x1="181.8" y1="106.9" x2="181.8" y2="108.9"/>
		<line class="st3" x1="185.9" y1="115.1" x2="185.9" y2="116.1"/>
		<line class="st3" x1="190.1" y1="113" x2="190.1" y2="114.1"/>
		<line class="st3" x1="181.8" y1="113" x2="181.8" y2="114.1"/>
	</g>
	<g>
		<line class="st3" x1="169.2" y1="98.6" x2="169.2" y2="104.8"/>
		<line class="st3" x1="169.2" y1="108.9" x2="169.2" y2="111"/>
		<line class="st3" x1="173.4" y1="96.6" x2="173.4" y2="102.8"/>
		<line class="st3" x1="173.4" y1="106.9" x2="173.4" y2="108.9"/>
		<line class="st3" x1="165.1" y1="96.6" x2="165.1" y2="102.8"/>
		<line class="st3" x1="165.1" y1="106.9" x2="165.1" y2="108.9"/>
		<line class="st3" x1="169.2" y1="115.1" x2="169.2" y2="116.1"/>
		<line class="st3" x1="173.4" y1="113" x2="173.4" y2="114.1"/>
		<line class="st3" x1="165.1" y1="113" x2="165.1" y2="114.1"/>
	</g>
	<g>
		<line class="st3" x1="202.6" y1="98.6" x2="202.6" y2="104.8"/>
		<line class="st3" x1="202.6" y1="108.9" x2="202.6" y2="111"/>
		<line class="st3" x1="206.8" y1="96.6" x2="206.8" y2="102.8"/>
		<line class="st3" x1="206.8" y1="106.9" x2="206.8" y2="108.9"/>
		<line class="st3" x1="198.5" y1="96.6" x2="198.5" y2="102.8"/>
		<line class="st3" x1="198.5" y1="106.9" x2="198.5" y2="108.9"/>
		<line class="st3" x1="202.6" y1="115.1" x2="202.6" y2="116.1"/>
		<line class="st3" x1="206.8" y1="113" x2="206.8" y2="114.1"/>
		<line class="st3" x1="198.5" y1="113" x2="198.5" y2="114.1"/>
	</g>
	<polyline class="st3" points="212,65.7 236,65.7 236,135.7 135.8,135.7 135.8,65.7 161.9,65.7 	"/>
	<line class="st3" x1="135.8" y1="122.3" x2="236" y2="122.3"/>
</g>
<polygon class="st1" points="236.2,17 231.9,17 228.3,10.2 221.2,10.2 217.6,14.3 211.9,14.3 206.9,21.7 211.9,27.8 234.7,27.8 
	238.3,23.1 "/>
<polygon class="st2" points="238.3,23.1 234,23.1 231.9,24.4 214.8,24.4 211.9,21.7 206.9,21.7 211.9,27.8 234.7,27.8 "/>
<g>
	<line class="st7" x1="222.6" y1="23.7" x2="222.6" y2="40"/>
	<polyline class="st7" points="216.9,29.2 222.6,23.7 228.3,29.2 	"/>
</g>
<g>
	<polyline class="st7" points="231.2,27.8 234.7,27.8 238.3,23.1 236.2,17 231.9,17 228.3,10.2 221.2,10.2 217.6,14.3 211.9,14.3 
		206.9,21.7 211.9,27.8 214,27.8 	"/>
	<line class="st7" x1="226.9" y1="17" x2="231.9" y2="17"/>
</g>
</svg>
