<?xml version="1.0" encoding="utf-8"?>
<!-- Generator: Adobe Illustrator 22.0.1, SVG Export Plug-In . SVG Version: 6.00 Build 0)  -->
<svg version="1.1" id="Layer_1" xmlns="http://www.w3.org/2000/svg" xmlns:xlink="http://www.w3.org/1999/xlink" x="0px" y="0px"
	 viewBox="0 0 375 149" style="enable-background:new 0 0 375 149;" xml:space="preserve">
<style type="text/css">
	.st0{fill:#FFFFFF;}
	.st1{fill:#CCEFFF;}
	.st2{fill:none;stroke:#1050FF;stroke-width:2;stroke-linecap:round;stroke-linejoin:round;stroke-miterlimit:10;}
	.st3{fill:#FFFFFF;stroke:#1050FF;stroke-width:2;stroke-linecap:round;stroke-linejoin:round;stroke-miterlimit:10;}
	.st4{fill:#FFFFFF;stroke:#1050FF;stroke-width:2;stroke-linejoin:round;stroke-miterlimit:10;}
	.st5{fill:none;stroke:#1050FF;stroke-width:2;stroke-linejoin:round;stroke-miterlimit:10;}
	.st6{fill:none;stroke:#1050FF;stroke-linecap:round;stroke-linejoin:round;stroke-miterlimit:10;}
</style>
<g>
	<polygon class="st0" points="191.8,76 194.2,93.5 202.7,92 202.7,71.3 198.8,71.3 	"/>
	<polygon class="st0" points="182.4,76 180,93.5 171.5,92 171.5,71.3 175.4,71.3 	"/>
	<polygon class="st0" points="205.1,91.6 191.8,93.9 189.5,130.6 195.3,138.8 209,137.6 212.9,129.1 	"/>
	<polygon class="st0" points="209,137.6 215.2,147 192.6,147 195.3,138.8 	"/>
	<polygon class="st0" points="169.2,91.6 182.4,93.9 184.8,130.6 178.9,138.8 165.3,137.6 161.4,129.1 	"/>
	<polygon class="st0" points="165.3,137.6 159,147 181.6,147 178.9,138.8 	"/>
	<polygon class="st0" points="191.8,63.5 199.6,59.6 202.7,71.3 198.8,71.3 187.1,79.1 	"/>
	<polygon class="st0" points="182.4,63.5 174.6,59.6 171.5,71.3 175.4,71.3 187.1,79.1 	"/>
	<polygon class="st0" points="182.4,63.5 191.8,63.5 187.1,79.1 	"/>
	<polygon class="st0" points="216.8,62.7 219,64.2 220.7,75.2 207.4,76 208.2,65.1 209.7,63.5 	"/>
	<polygon class="st0" points="157.5,62.7 155.3,64.2 153.6,75.2 166.8,76 166,65.1 164.5,63.5 	"/>
	<polygon class="st0" points="196.5,61.2 200.4,51 193.4,51 187.1,57.3 180.9,51 173.8,51 177.7,61.2 182.4,63.5 191.8,63.5 	"/>
	<polygon class="st0" points="187.1,57.3 193.4,51 204.3,51 206.9,47.2 205.1,36.2 198,33.1 187.1,42.5 	"/>
	<polygon class="st0" points="205.4,37.9 211.3,36.2 217.5,39.3 216,47.1 216.8,62.7 209.7,63.5 	"/>
	<polygon class="st0" points="187.1,57.3 180.9,51 169.9,51 167.3,47.2 169.2,36.2 176.2,33.1 187.1,42.5 	"/>
	<polygon class="st0" points="168.9,37.9 162.9,36.2 156.7,39.3 158.2,47.1 157.5,62.7 164.5,63.5 	"/>
	<polygon class="st0" points="187.1,34.6 198,27.6 195.7,17.5 187.1,10.5 178.5,17.5 176.2,27.6 	"/>
	<path class="st1" d="M187.1,15.1c0,0-9.3,7.6-9.9,8.1l-1,4.4l10.9,7l10.9-7l-1-4.4L187.1,15.1z"/>
	<g>
		<line class="st2" x1="120" y1="147" x2="255.8" y2="147"/>
		<line class="st2" x1="259.7" y1="147" x2="262" y2="147"/>
		<line class="st2" x1="113" y1="147" x2="115.3" y2="147"/>
	</g>
	<polygon class="st3" points="180.9,24.1 185.2,24.1 185.2,21.4 181.6,19.4 	"/>
	<polygon class="st3" points="193.4,24.1 189.1,24.1 189.1,21.4 192.6,19.4 	"/>
	<polygon class="st4" points="197.8,26.4 206.6,15.9 201.2,5 201.9,13.6 195.8,18.1 	"/>
	<polygon class="st4" points="176.5,26.4 167.6,15.9 173.1,5 172.3,13.6 178.4,18.1 	"/>
	<polygon class="st5" points="187.1,34.6 198,27.6 195.7,17.5 187.1,10.5 178.5,17.5 176.2,27.6 	"/>
	<polygon class="st1" points="197.3,63.5 199.3,71.3 198.8,71.3 187.1,79.1 190.8,66.7 	"/>
	<polygon class="st1" points="198.8,92.7 194.2,93.5 191.8,76 198.8,71.3 	"/>
	<polygon class="st1" points="204.3,46.4 206.3,43.4 206.9,47.2 204.3,51 193.4,51 187.1,57.3 187.1,52.6 193.4,46.4 	"/>
	<polygon class="st1" points="207.4,76 208.2,65.1 209.7,63.5 215.2,62.9 217.5,75.4 	"/>
	<polygon class="st1" points="210.7,40 214,41.6 212.9,47.1 214.4,63 209.7,63.5 205.9,41.4 	"/>
	<polygon class="st1" points="189.5,130.6 191.8,93.9 200.5,92.4 207.7,129.5 204.3,138 195.3,138.8 	"/>
	<polygon class="st1" points="200.4,51 198.9,54.9 193.5,55.3 187.1,60.8 187.1,57.3 193.4,51 	"/>
	<polygon class="st1" points="203.5,138.1 209.7,147 192.6,147 195.3,138.8 	"/>
	<polygon class="st5" points="191.8,63.5 199.6,59.6 202.7,71.3 198.8,71.3 187.1,79.1 	"/>
	<polygon class="st5" points="191.8,76 194.2,93.5 202.7,92 202.7,71.3 198.8,71.3 	"/>
	<polygon class="st5" points="205.1,91.6 191.8,93.9 189.5,130.6 195.3,138.8 209,137.6 212.9,129.1 	"/>
	<polygon class="st5" points="209,137.6 215.2,147 192.6,147 195.3,138.8 	"/>
	<polygon class="st4" points="205.6,137.9 198.8,96.3 199.8,138.4 	"/>
	<polygon class="st5" points="187.1,57.3 193.4,51 204.3,51 206.9,47.2 205.1,36.2 198,33.1 187.1,42.5 	"/>
	<polygon class="st5" points="216.8,62.7 219,64.2 220.7,75.2 207.4,76 208.2,65.1 209.7,63.5 	"/>
	<polygon class="st4" points="218.3,75.4 219.9,86.1 214.4,94.7 212.1,93.2 214.4,86.1 212.9,82.2 209,88.5 207,87.7 209.8,75.9 	
		"/>
	<polygon class="st4" points="215.6,75.5 212.8,63.2 211.7,75.7 	"/>
	<polygon class="st5" points="205.4,37.9 211.3,36.2 217.5,39.3 216,47.1 216.8,62.7 209.7,63.5 	"/>
	<line class="st5" x1="216" y1="47.1" x2="206.9" y2="47.1"/>
	<polygon class="st1" points="177,63.5 174.9,71.3 175.4,71.3 187.1,79.1 183.4,66.7 	"/>
	<polygon class="st1" points="175.4,92.7 180,93.5 182.4,76 175.4,71.3 	"/>
	<polygon class="st1" points="169.9,46.4 167.9,43.4 167.3,47.2 169.9,51 180.9,51 187.1,57.3 187.1,52.6 180.9,46.4 	"/>
	<polygon class="st1" points="166.8,76 166,65.1 164.5,63.5 159.1,62.9 156.7,75.4 	"/>
	<polygon class="st1" points="163.5,40 160.2,41.6 161.4,47.1 159.8,63 164.5,63.5 168.3,41.4 	"/>
	<polygon class="st1" points="184.8,130.6 182.4,93.9 173.7,92.4 166.5,129.5 169.9,138 178.9,138.8 	"/>
	<polygon class="st1" points="173.8,51 175.3,54.9 180.7,55.3 187.1,60.8 187.1,57.3 180.9,51 	"/>
	<polygon class="st1" points="170.7,138.1 164.5,147 181.6,147 178.9,138.8 	"/>
	<polygon class="st5" points="182.4,63.5 174.6,59.6 171.5,71.3 175.4,71.3 187.1,79.1 	"/>
	<polygon class="st5" points="182.4,76 180,93.5 171.5,92 171.5,71.3 175.4,71.3 	"/>
	<polygon class="st5" points="169.2,91.6 182.4,93.9 184.8,130.6 178.9,138.8 165.3,137.6 161.4,129.1 	"/>
	<polygon class="st5" points="165.3,137.6 159,147 181.6,147 178.9,138.8 	"/>
	<polygon class="st4" points="168.6,137.9 175.4,96.3 174.4,138.4 	"/>
	<polygon class="st5" points="187.1,57.3 180.9,51 169.9,51 167.3,47.2 169.2,36.2 176.2,33.1 187.1,42.5 	"/>
	<polygon class="st5" points="157.5,62.7 155.3,64.2 153.6,75.2 166.8,76 166,65.1 164.5,63.5 	"/>
	<polygon class="st4" points="155.9,75.4 154.3,86.1 159.8,94.7 162.1,93.2 159.8,86.1 161.4,82.2 165.3,88.5 167.2,87.7 
		164.5,75.9 	"/>
	<polygon class="st4" points="158.6,75.5 161.4,63.2 162.5,75.7 	"/>
	<polygon class="st5" points="168.9,37.9 162.9,36.2 156.7,39.3 158.2,47.1 157.5,62.7 164.5,63.5 	"/>
	<line class="st5" x1="158.2" y1="47.1" x2="167.3" y2="47.1"/>
	<polygon class="st3" points="183.2,32.1 183.2,27.6 187.1,29.6 191,27.6 191,32.1 187.1,34.6 	"/>
	<polygon class="st4" points="195.4,35.3 192.4,31.2 187.1,34.6 181.8,31.2 178.8,35.3 187.1,42.5 	"/>
	<polygon class="st5" points="196.5,61.2 200.4,51 193.4,51 187.1,57.3 180.9,51 173.8,51 177.7,61.2 182.4,63.5 191.8,63.5 	"/>
	<polygon class="st5" points="182.4,63.5 191.8,63.5 187.1,79.1 	"/>
	<polygon class="st0" points="219.7,28.6 217,11.2 228.8,7.4 241,11.2 237.9,28.6 228.8,32.8 	"/>
	<path class="st1" d="M228.8,4.5L214,9.3l3.2,21.1l11.6,5.5l11.6-5.5L244,9.3L228.8,4.5z M237.9,28.6l-9.1,4.3l-9.1-4.3L217,11.2
		l11.8-3.8l12.2,3.8L237.9,28.6z"/>
	<polygon class="st1" points="228.8,7.4 224.4,8.8 238.8,23.2 239.8,18 229.3,7.5 	"/>
	<g>
		<polygon class="st1" points="219.7,28.6 228.8,32.8 229.7,32.4 218.6,21.4 		"/>
		<polygon class="st1" points="219.8,10.3 217,11.2 217.5,14.1 233.8,30.5 237.9,28.6 237.9,28.4 		"/>
	</g>
	<g>
		<polygon class="st6" points="228.8,4.5 244,9.3 240.4,30.4 228.8,35.9 217.2,30.4 214,9.3 		"/>
		<polygon class="st6" points="219.7,28.6 217,11.2 228.8,7.4 241,11.2 237.9,28.6 228.8,32.8 		"/>
		<line class="st6" x1="229.3" y1="7.5" x2="239.8" y2="18"/>
		<line class="st6" x1="224.4" y1="8.8" x2="238.8" y2="23.2"/>
		<line class="st6" x1="219.8" y1="10.3" x2="237.9" y2="28.4"/>
		<line class="st6" x1="217.5" y1="14.1" x2="233.8" y2="30.5"/>
		<line class="st6" x1="218.6" y1="21.4" x2="229.7" y2="32.4"/>
	</g>
</g>
</svg>
