<?xml version="1.0" encoding="utf-8"?>
<!-- Generator: Adobe Illustrator 22.0.1, SVG Export Plug-In . SVG Version: 6.00 Build 0)  -->
<svg version="1.1" id="Layer_1" xmlns="http://www.w3.org/2000/svg" xmlns:xlink="http://www.w3.org/1999/xlink" x="0px" y="0px"
	 viewBox="0 0 375 149" style="enable-background:new 0 0 375 149;" xml:space="preserve">
<style type="text/css">
	.st0{fill:#FFFFFF;}
	.st1{fill:#CCEFFF;}
	.st2{fill:none;stroke:#1050FF;stroke-width:2;stroke-linejoin:round;stroke-miterlimit:10;}
	.st3{fill:none;stroke:#1050FF;stroke-width:2;stroke-linecap:round;stroke-linejoin:round;stroke-miterlimit:10;}
	.st4{fill:#FFFFFF;stroke:#1050FF;stroke-width:2;stroke-linecap:round;stroke-linejoin:round;stroke-miterlimit:10;}
	.st5{fill:#CCEFFF;stroke:#1050FF;stroke-width:2;stroke-linejoin:round;stroke-miterlimit:10;}
</style>
<g>
	<polygon class="st0" points="192.8,84.1 218.5,84.1 226.4,84.1 246.1,76.2 246.1,51.1 222.4,41.9 198.7,51.1 197.4,59 	"/>
	<polyline class="st0" points="235.6,22.1 239.6,22.1 239.6,26.1 235.6,28 	"/>
	<polyline class="st0" points="153.9,95.9 144.7,146 163.1,95.9 	"/>
	<polyline class="st0" points="238.2,95.9 243.5,146 219.8,103.8 196.1,146 202.7,95.9 	"/>
	<polygon class="st0" points="268.5,95.9 147.3,95.9 136.8,84.1 279.1,84.1 	"/>
	<polyline class="st0" points="263.3,95.9 272.5,146 254,95.9 	"/>
	<polygon class="st0" points="268.5,84.1 259.3,84.1 256.7,66.9 271.2,66.9 	"/>
	<polygon class="st0" points="235.6,34 222.4,39.3 209.2,34 209.2,12.2 222.4,5 235.6,12.2 	"/>
	<polygon class="st0" points="109.1,146 97.2,146 90.6,121 115.7,121 	"/>
	<polygon class="st1" points="219.8,103.8 243.5,146 238.2,95.9 209.2,95.9 204.7,130.7 	"/>
	<polygon class="st1" points="264.7,103.8 263.3,95.9 254,95.9 257,103.8 	"/>
	<polygon class="st1" points="152.4,103.8 153.9,95.9 163.1,95.9 160.2,103.8 	"/>
	<polygon class="st1" points="103.2,121 115.7,121 109.1,146 103.2,146 	"/>
	<polygon class="st1" points="263.3,84.1 268.5,84.1 271.2,66.9 263.3,66.9 	"/>
	<polygon class="st1" points="209.2,19.5 209.2,17.5 222.4,10.3 235.6,17.5 235.6,19.5 	"/>
	<polygon class="st2" points="235.6,34 222.4,39.3 209.2,34 209.2,12.2 222.4,5 235.6,12.2 	"/>
	<line class="st3" x1="215.8" y1="25.4" x2="215.8" y2="23.4"/>
	<line class="st3" x1="226.4" y1="25.4" x2="226.4" y2="23.4"/>
	<polygon class="st4" points="155.6,84.1 146,49.8 189.5,49.8 199.1,84.1 	"/>
	<polygon class="st5" points="175.6,66.3 171.7,68.9 167.7,66.3 167.7,62.3 171.7,59.7 175.6,62.3 	"/>
	<g>
		<polyline class="st3" points="230.7,45.1 222.4,61.7 214.2,45.1 		"/>
	</g>
	<line class="st3" x1="235.6" y1="19.5" x2="197.4" y2="19.5"/>
	<polyline class="st3" points="224.4,31.4 221.1,32.7 217.8,31.4 	"/>
	<polyline class="st3" points="235.6,22.1 239.6,22.1 239.6,26.1 235.6,28 	"/>
	<line class="st3" x1="197.6" y1="78.8" x2="154.2" y2="78.8"/>
	<polygon class="st4" points="199.1,84.1 219.8,84.1 217.1,78.8 197.6,78.8 	"/>
	<polyline class="st3" points="238.2,60.3 238.2,69.6 218.5,84.1 226.4,84.1 246.1,76.2 246.1,51.1 222.4,41.9 198.7,51.1 197.4,59 
			"/>
	<line class="st3" x1="238.2" y1="60.3" x2="238.2" y2="66.9"/>
	<polygon class="st3" points="268.5,95.9 147.3,95.9 136.8,84.1 279.1,84.1 	"/>
	<polyline class="st3" points="153.9,95.9 144.7,146 163.1,95.9 	"/>
	<polyline class="st3" points="263.3,95.9 272.5,146 254,95.9 	"/>
	<g>
		<line class="st3" x1="73.5" y1="146" x2="302.8" y2="146"/>
		<line class="st3" x1="309.4" y1="146" x2="313.3" y2="146"/>
		<line class="st3" x1="61.7" y1="146" x2="65.6" y2="146"/>
	</g>
	<polyline class="st3" points="238.2,95.9 243.5,146 219.8,103.8 196.1,146 202.7,95.9 	"/>
	<g>
		<polyline class="st3" points="259.3,59 262,56.4 256.7,51.1 259.3,48.5 		"/>
		<polyline class="st3" points="268.5,59 271.2,56.4 265.9,51.1 268.5,48.5 		"/>
	</g>
	<polygon class="st3" points="268.5,84.1 259.3,84.1 256.7,66.9 271.2,66.9 	"/>
	<polygon class="st3" points="109.1,146 97.2,146 90.6,121 115.7,121 	"/>
	<polygon class="st4" points="109.1,98.6 114.4,98.6 119.6,88 109.1,93.3 	"/>
	<polygon class="st4" points="97.2,107.8 92,107.8 82.7,94.6 97.2,102.5 	"/>
	<polygon class="st4" points="110.4,73.5 115.7,73.5 124.9,60.3 110.4,68.3 	"/>
	<polygon class="st4" points="92,86.7 77.5,70.9 98.6,80.1 98.6,86.7 	"/>
	<line class="st3" x1="103.8" y1="121" x2="103.8" y2="51.1"/>
	<polygon class="st4" points="98.6,57.7 85.4,47.2 92,61.7 98.6,64.3 	"/>
	<polyline class="st3" points="93.9,132.8 99.2,127.6 103.2,131.5 107.1,127.6 112.4,132.8 	"/>
</g>
</svg>
