<?xml version="1.0" encoding="UTF-8"?><svg xmlns="http://www.w3.org/2000/svg" xmlns:xlink="http://www.w3.org/1999/xlink" version="1.1" id="Layer_1" x="0px" y="0px" viewBox="0 0 40 40" xml:space="preserve"><path d="M30.5 38.5a8 8 0 0 0 8-8v-21a8 8 0 0 0-8-8h-21a8 8 0 0 0-8 8v21a8 8 0 0 0 8 8h21z" fill="#8585CC"/><path d="M3.4 4.331A7.964 7.964 0 0 0 1.5 9.5v21a8 8 0 0 0 8 8h21a8 8 0 0 0 8-8v-21c0-.503-.052-.992-.141-1.469C32.135 4.22 24.832 2 17 2c-4.771 0-9.343.832-13.6 2.331z" fill="#8D8DD8"/><path d="M1.505 9.404c-.001.033-.005.064-.005.096v21a8 8 0 0 0 8 8h21a8 8 0 0 0 8-8V12.897A36.816 36.816 0 0 0 17 6 36.848 36.848 0 0 0 1.505 9.404z" fill="#BD82F4"/><path d="M1.5 13.88V30.5a8 8 0 0 0 8 8h21a8 8 0 0 0 8-8V17.981C32.724 13.013 25.217 10 17 10a32.835 32.835 0 0 0-15.5 3.88z" fill="#ED73F4"/><path d="M17 14a28.84 28.84 0 0 0-15.5 4.509V30.5a8 8 0 0 0 8 8h21a8 8 0 0 0 8-8v-6.935C33.194 17.698 25.534 14 17 14z" fill="#F97DCD"/><path d="M17 18c-5.861 0-11.237 2.033-15.5 5.411V30.5a8 8 0 0 0 8 8h21a8 8 0 0 0 8-8v-.238C34.143 22.925 26.152 18 17 18z" fill="#FC9C95"/><path d="M17 22c-6.145 0-11.66 2.651-15.5 6.859V30.5a8 8 0 0 0 8 8h21a7.983 7.983 0 0 0 6.136-2.87C33.648 27.674 25.999 22 17 22z" fill="#FFAC99"/><path d="M30.5 38.5c.957 0 1.87-.177 2.721-.485C31.087 31.065 24.649 26 17 26c-6.186 0-11.592 3.309-14.566 8.248A7.996 7.996 0 0 0 9.5 38.5h21z" fill="#FFC49C"/><path d="M17 30c-5.137 0-9.573 2.984-11.684 7.309A7.946 7.946 0 0 0 9.5 38.5h19.683C27.35 33.542 22.595 30 17 30z" fill="#FFDE8D"/><path d="M17 34c-3.319 0-6.193 1.813-7.753 4.487.085.003.168.013.253.013h15.26C23.203 35.818 20.324 34 17 34z" fill="#FFF69F"/><path d="M31 2c3.86 0 7 3.14 7 7v22c0 3.86-3.14 7-7 7H9c-3.86 0-7-3.14-7-7V9c0-3.86 3.14-7 7-7h22m0-1H9a8 8 0 0 0-8 8v22a8 8 0 0 0 8 8h22a8 8 0 0 0 8-8V9a8 8 0 0 0-8-8z" fill="#8B75A1"/><circle cx="27.5" cy="12.5" r="1.5" fill="#FFF"/><circle cx="20" cy="20" r="6" fill="none" stroke="#FFF" stroke-width="2" stroke-miterlimit="10"/><path d="M33 14.5A7.5 7.5 0 0 0 25.5 7h-11A7.5 7.5 0 0 0 7 14.5v11a7.5 7.5 0 0 0 7.5 7.5h11a7.5 7.5 0 0 0 7.5-7.5v-11z" fill="none" stroke="#FFF" stroke-width="2" stroke-miterlimit="10"/><metadata><rdf:RDF xmlns:rdf="http://www.w3.org/1999/02/22-rdf-syntax-ns#" xmlns:rdfs="http://www.w3.org/2000/01/rdf-schema#" xmlns:dc="http://purl.org/dc/elements/1.1/"><rdf:Description about="https://iconscout.com/legal#licenses" dc:title="instagram" dc:description="instagram" dc:publisher="Iconscout" dc:date="2018-01-02" dc:format="image/svg+xml" dc:language="en"><dc:creator><rdf:Bag><rdf:li>Icons8</rdf:li></rdf:Bag></dc:creator></rdf:Description></rdf:RDF></metadata></svg>